HIERARCHY
ROOT Hips
{
	OFFSET 207.810501 92.148010 50.517139
	CHANNELS 6 Xposition Yposition Zposition Zrotation Yrotation Xrotation 
	JOINT LeftUpLeg
	{
		OFFSET 0.103462 1.857827 10.548504
		CHANNELS 3 Xrotation Yrotation Zrotation
		JOINT LeftLeg
		{
			OFFSET 43.500000 -0.000031 0.000000
			CHANNELS 3 Xrotation Yrotation Zrotation
			JOINT LeftFoot
			{
				OFFSET 42.372192 0.000015 0.000000
				CHANNELS 3 Xrotation Yrotation Zrotation
				JOINT LeftToe
				{
					OFFSET 17.300001 0.000000 -0.000009
					CHANNELS 3 Xrotation Yrotation Zrotation
					End Site
					{
						OFFSET 0.000000 0.000000 0.000000
					}
				}
			}
		}
	}
	JOINT RightUpLeg
	{
		OFFSET 0.103456 1.857828 -10.548508
		CHANNELS 3 Xrotation Yrotation Zrotation
		JOINT RightLeg
		{
			OFFSET 43.500046 -0.000015 0.000008
			CHANNELS 3 Xrotation Yrotation Zrotation
			JOINT RightFoot
			{
				OFFSET 42.372261 -0.000015 0.000002
				CHANNELS 3 Xrotation Yrotation Zrotation
				JOINT RightToe
				{
					OFFSET 17.299999 -0.000003 0.000011
					CHANNELS 3 Xrotation Yrotation Zrotation
					End Site
					{
						OFFSET 0.000000 0.000000 0.000000
					}
				}
			}
		}
	}
	JOINT Spine
	{
		OFFSET 6.901966 -2.603728 -0.000009
		CHANNELS 3 Xrotation Yrotation Zrotation
		JOINT Spine1
		{
			OFFSET 12.588099 0.000000 0.000013
			CHANNELS 3 Xrotation Yrotation Zrotation
			JOINT Spine2
			{
				OFFSET 12.343203 0.000005 -0.000004
				CHANNELS 3 Xrotation Yrotation Zrotation
				JOINT Neck
				{
					OFFSET 25.832897 -0.000004 0.000004
					CHANNELS 3 Xrotation Yrotation Zrotation
					JOINT Head
					{
						OFFSET 11.766615 0.000003 -0.000003
						CHANNELS 3 Xrotation Yrotation Zrotation
						End Site
						{
							OFFSET 0.000000 0.000000 0.000000
						}
					}
				}
				JOINT LeftShoulder
				{
					OFFSET 19.745903 -1.480370 6.000102
					CHANNELS 3 Xrotation Yrotation Zrotation
					JOINT LeftArm
					{
						OFFSET 11.284127 -0.000006 -0.000019
						CHANNELS 3 Xrotation Yrotation Zrotation
						JOINT LeftForeArm
						{
							OFFSET 33.000042 0.000001 0.000035
							CHANNELS 3 Xrotation Yrotation Zrotation
							JOINT LeftHand
							{
								OFFSET 25.200005 0.000015 0.000003
								CHANNELS 3 Xrotation Yrotation Zrotation
								End Site
								{
									OFFSET 0.000000 0.000000 0.000000
								}
							}
						}
					}
				}
				JOINT RightShoulder
				{
					OFFSET 19.746101 -1.480375 -6.000084
					CHANNELS 3 Xrotation Yrotation Zrotation
					JOINT RightArm
					{
						OFFSET 11.284132 -0.000016 -0.000012
						CHANNELS 3 Xrotation Yrotation Zrotation
						JOINT RightForeArm
						{
							OFFSET 33.000092 0.000018 0.000010
							CHANNELS 3 Xrotation Yrotation Zrotation
							JOINT RightHand
							{
								OFFSET 25.199774 0.000137 0.000425
								CHANNELS 3 Xrotation Yrotation Zrotation
								End Site
								{
									OFFSET 0.000000 0.000000 0.000000
								}
							}
						}
					}
				}
			}
		}
	}
}
MOTION
Frames: 7
Frame Time: 0.033333
42.130550 76.530373 68.239861 103.769213 0.593482 39.271003 140.120730 -0.997190 172.927904 -71.323390 -0.011808 0.734196 101.867511 -0.922881 -7.064901 21.454555 0.003105 0.000018 126.535825 7.021606 -173.392917 -109.220305 -3.618168 7.572731 84.214621 -3.400599 8.272611 21.454555 -0.003093 -0.000003 15.472812 -1.268201 -0.909297 20.958244 -2.350560 -2.033696 20.640067 -2.362917 -2.019483 -4.452999 -1.697593 6.936265 -32.782084 -3.508613 8.701942 158.664980 -77.229502 20.255110 -46.692724 41.826716 -30.597864 -93.243823 -5.093429 2.848094 -25.237342 -19.093428 41.396250 141.113279 74.171613 -38.244350 -18.515345 -53.776186 -9.336174 -40.446693 17.794658 -1.651961 -7.965499 21.407145 -27.402109 
33.635288 79.153923 73.156532 103.075109 -0.900895 38.541016 150.048710 -2.059291 175.605038 -64.424223 -0.180430 0.012771 100.416697 -0.613381 -8.729668 21.454557 0.003109 0.000018 118.585171 6.780110 -173.803685 -97.273744 -2.137682 7.880949 83.182340 -3.509129 8.943175 21.454551 -0.003092 0.000001 15.296851 -0.701332 -0.933028 20.592701 -1.225266 -1.976056 20.274730 -1.237299 -1.968637 -3.990695 -1.168658 7.603412 -32.318857 -4.548100 10.052092 157.064530 -78.208309 21.832893 -47.553461 42.717878 -32.251446 -98.964271 -2.113754 2.895901 -24.720729 -17.484075 38.735324 144.075327 75.033234 -35.175963 -13.036376 -55.096691 -18.470836 -36.396319 16.008684 -1.433111 -8.418259 18.912340 -29.263324 
24.921480 81.883476 77.958870 103.476697 -2.254744 37.559080 158.913941 -2.999607 178.254509 -56.114102 -1.612897 -1.465686 92.474389 -0.118736 -8.632072 21.454562 0.003108 0.000017 114.329683 6.787594 -175.569575 -80.313087 0.813960 9.272287 81.786461 -4.387979 9.504314 21.454541 -0.003089 0.000001 14.922244 -0.227633 -1.044496 19.834212 -0.272700 -2.112473 19.516364 -0.285582 -2.110805 -3.951746 -1.209002 7.937119 -31.791174 -5.861776 11.041334 162.652076 -78.232099 16.156218 -45.999668 44.541412 -29.103788 -101.683704 -1.527129 2.976361 -24.916880 -17.394718 38.727637 145.056402 75.515815 -34.147370 -7.375062 -56.100162 -27.582124 -33.171545 14.248722 -1.246083 -7.557803 18.438972 -27.969918 
15.834160 84.356506 82.737831 103.773810 -3.562119 36.914065 166.913854 -5.170397 178.700001 -48.548165 -2.830983 -1.656688 81.898456 -0.624097 -8.164701 21.454562 0.003100 0.000019 114.433693 6.805498 -173.961394 -59.720661 1.627807 11.075574 82.339652 -5.671069 9.816480 21.454551 -0.003093 0.000001 14.485178 0.244882 -1.164643 18.951104 0.677365 -2.273336 18.633250 0.663500 -2.277403 -3.268520 -0.639123 8.276897 -31.403352 -6.641100 11.907048 166.714604 -77.764005 12.044093 -41.647314 47.249278 -24.648329 -102.100106 -1.313207 2.979990 -24.917654 -15.580201 40.142545 146.759906 76.304319 -32.366398 -1.509264 -57.034006 -35.726165 -31.603156 11.891412 -1.060772 -7.220723 17.885166 -26.143143 
6.104329 85.872833 87.813240 104.699997 -3.202034 37.508056 174.243972 -6.026905 177.828579 -43.637136 -3.171594 -1.108377 74.716867 -1.930019 -9.580034 21.454568 0.003101 0.000015 117.571912 8.216598 -169.968670 -38.588738 -0.199368 9.251169 82.568333 -4.098216 11.160430 21.454553 -0.003093 0.000001 13.989280 0.416435 -1.618946 17.951590 1.079252 -3.153569 17.633962 1.060070 -3.160042 -3.124962 1.096866 8.568234 -29.322531 -7.364447 12.763665 170.673190 -76.710797 8.048489 -35.047797 48.897830 -17.684183 -100.303889 -1.586897 2.918991 -23.979824 -15.191599 40.698324 152.011775 75.999235 -27.047995 5.454400 -56.342569 -44.162675 -32.134865 11.550342 -1.049404 -9.157925 16.982104 -27.470133 
-3.422845 86.136612 92.849808 105.157900 -2.160077 38.472898 178.716653 -5.435301 178.496448 -45.789988 -1.147117 -0.279898 72.980278 -2.632588 -9.252757 21.454557 0.003111 0.000014 121.070335 9.649400 -170.633357 -23.577364 0.524280 7.291754 82.357765 -2.045188 14.290829 21.454551 -0.003092 -0.000000 13.548773 0.470203 -2.071299 17.063667 1.241079 -4.050534 16.746369 1.216482 -4.057949 -1.901882 1.968559 8.464544 -28.714809 -7.921856 13.051594 172.661691 -76.051008 6.039809 -28.086680 50.463616 -11.037073 -96.914818 -2.402977 2.824366 -22.440510 -14.649130 41.306187 155.430763 75.599587 -23.590580 13.238211 -54.996570 -51.640178 -34.968031 13.072891 -1.209515 -13.838598 15.587144 -34.290312 
-12.582350 85.600838 97.674889 104.485092 -0.384256 39.445073 179.625260 -3.423497 -177.425338 -56.885610 0.890374 -1.524430 75.843240 -0.977667 -7.214308 21.454555 0.003113 0.000014 124.412019 10.769503 -172.947534 -20.006847 1.090662 7.391577 81.401320 -1.829382 15.102662 21.454551 -0.003088 -0.000003 13.537336 0.438344 -2.321854 17.038540 1.214223 -4.553763 16.721474 1.186599 -4.561007 -3.656027 3.602180 7.934200 -26.285343 -9.700986 13.444210 175.079318 -77.476939 3.536193 -24.070483 52.931586 -5.799053 -92.476206 -4.739152 2.788900 -22.739839 -15.376433 42.477162 163.353618 76.313369 -15.484966 16.181659 -54.046600 -53.589623 -37.933416 13.410353 -1.301547 -13.700188 17.726844 -33.564615 
